<svg width="100" height="100" viewBox="0 0 100 100" fill="none" xmlns="http://www.w3.org/2000/svg">
<path d="M61.6232 8.59038L65.1784 19.7703C66.7849 24.9448 71.4133 28.4626 76.652 28.4906H87.8563C93.1111 28.4559 97.7831 31.9544 99.4079 37.1403C101.033 42.3262 99.2364 48.007 94.9668 51.1858L85.7555 58.1173C81.5154 61.3117 79.7334 66.972 81.3385 72.1481L84.8937 83.328C86.6521 88.5217 84.9354 94.2981 80.6635 97.562C76.3915 100.826 70.5665 100.811 66.3096 97.5264L57.26 90.539C53.0178 87.3498 47.2814 87.3498 43.0392 90.539L33.9896 97.5264C29.7564 100.742 24.0064 100.75 19.7644 97.5475C15.5224 94.3449 13.7605 88.6649 15.4055 83.4957L18.9607 72.3158C20.5658 67.1397 18.7838 61.4794 14.5436 58.285L5.11696 51.2417C0.760741 48.0563 -1.06599 42.2826 0.622923 37.0376C2.31184 31.7925 7.11639 28.3184 12.4428 28.4906H23.6471C28.8571 28.4785 33.4767 25.0124 35.1208 19.8821L38.676 8.70218C40.2697 3.53822 44.8854 0.025596 50.1105 0.000139235C55.3356 -0.0253175 59.9828 3.44218 61.6232 8.59038Z" fill="black" fill-opacity="0.72"/>
</svg>
