<svg width="24" height="23" viewBox="0 0 24 23" fill="none" xmlns="http://www.w3.org/2000/svg">
    <path d="M14.6582 1.96907L15.5039 4.53171C15.886 5.71781 16.9869 6.52414 18.2331 6.53057H20.8982C22.1481 6.52263 23.2595 7.32453 23.646 8.51323C24.0324 9.70194 23.6052 11.0041 22.5896 11.7327L20.3985 13.3216C19.3899 14.0538 18.966 15.3512 19.3478 16.5377L20.1935 19.1003C20.6118 20.2908 20.2034 21.6149 19.1873 22.363C18.1711 23.1111 16.7855 23.1078 15.7729 22.3549L13.6203 20.7532C12.6112 20.0222 11.2467 20.0222 10.2376 20.7532L8.08503 22.3549C7.07809 23.0918 5.71035 23.0938 4.70132 22.3597C3.69229 21.6256 3.27318 20.3236 3.66448 19.1387L4.51015 16.5761C4.89193 15.3897 4.46807 14.0922 3.45947 13.36L1.21716 11.7455C0.180956 11.0154 -0.253565 9.69196 0.148173 8.4897C0.549912 7.28744 1.69276 6.49109 2.95975 6.53057H5.6249C6.86419 6.52779 7.96304 5.73331 8.3541 4.55734L9.19977 1.9947C9.57888 0.811026 10.6768 0.00586707 11.9197 3.19152e-05C13.1626 -0.00580324 14.268 0.789011 14.6582 1.96907Z" fill="black"/>
</svg>
