<svg width="17" height="17" viewBox="0 0 17 17" fill="none" xmlns="http://www.w3.org/2000/svg">
<path fill-rule="evenodd" clip-rule="evenodd" d="M15.0055 10.6417C15.0079 11.126 15.2208 11.5852 15.5888 11.9C16.8471 13.025 15.9555 14.95 14.1721 14.95H11.0055C10.595 16.0703 9.53191 16.8178 8.33881 16.825C7.14181 16.8301 6.07231 16.0782 5.67214 14.95H2.50547C0.72214 14.95 -0.169526 13.025 1.08881 11.9C1.45683 11.5852 1.66975 11.126 1.67214 10.6417V6.61669C1.67214 3.33335 4.65547 0.666687 8.33881 0.666687C12.0221 0.666687 15.0055 3.33335 15.0055 6.61669V10.6417ZM7.07214 14.95C7.3754 15.3425 7.8428 15.5732 8.33881 15.575C8.82306 15.563 9.27612 15.3335 9.57214 14.95H7.07214Z" fill="black"/>
</svg>
