<svg width="16" height="17" viewBox="0 0 16 17" fill="none" xmlns="http://www.w3.org/2000/svg">
<path fill-rule="evenodd" clip-rule="evenodd" d="M15.0888 11.9C14.7186 11.5833 14.5054 11.1205 14.5055 10.6334V6.61669C14.5055 3.32502 11.5221 0.666687 7.83881 0.666687C4.15547 0.666687 1.17214 3.32502 1.17214 6.61669V10.6334C1.17217 11.1205 0.959036 11.5833 0.588807 11.9C-0.669527 13.025 0.22214 14.9417 2.00547 14.9417H5.17214C5.57617 16.067 6.64314 16.8176 7.83881 16.8176C9.03447 16.8176 10.1014 16.067 10.5055 14.9417H13.6721C15.4555 14.9417 16.3471 13.025 15.0888 11.9ZM7.83881 15.5667C7.3428 15.5648 6.8754 15.3342 6.57214 14.9417H9.07214C8.77852 15.328 8.32397 15.5583 7.83881 15.5667ZM13.6805 13.6917C13.9834 13.7191 14.2719 13.5567 14.4055 13.2834C14.4703 13.1187 14.4113 12.9311 14.2638 12.8334C13.6359 12.2733 13.2729 11.4747 13.2638 10.6334V6.61669C13.2638 4.02502 10.8305 1.91669 7.84714 1.91669C4.86381 1.91669 2.43047 4.02502 2.43047 6.61669V10.6334C2.42133 11.4747 2.05834 12.2733 1.43047 12.8334C1.27991 12.9287 1.2172 13.1168 1.28047 13.2834C1.41405 13.5567 1.70251 13.7191 2.00547 13.6917H13.6805Z" fill="black"/>
</svg>
