<svg width="16" height="15" viewBox="0 0 16 15" fill="none" xmlns="http://www.w3.org/2000/svg">
<path fill-rule="evenodd" clip-rule="evenodd" d="M15.5882 9.23875L15.699 9.785C15.8197 10.2516 15.7212 10.7479 15.4315 11.1331C15.1419 11.5183 14.6925 11.7506 14.2107 11.7642H11.1944C11.1951 13.0455 10.1792 14.0965 8.89857 14.1392H2.33565C1.61091 14.1272 0.931334 13.7848 0.490286 13.2096C0.0492384 12.6344 -0.104989 11.8893 0.0714881 11.1863L0.237738 10.3946C0.431051 9.30402 1.37072 8.5038 2.47816 8.48667H8.76399C9.04452 8.15138 9.45891 7.95723 9.89607 7.95625H14.084C14.8234 7.97984 15.448 8.51234 15.5882 9.23875ZM14.1948 10.5688C14.2914 10.5652 14.3814 10.5187 14.4402 10.4421C14.5438 10.3376 14.5959 10.1928 14.5827 10.0462L14.4719 9.5C14.4505 9.32304 14.3089 9.18477 14.1315 9.1675H9.94357C9.85246 9.16811 9.76713 9.21224 9.71399 9.28625C9.48697 9.5477 9.15774 9.69788 8.81149 9.69792H2.52565C1.98369 9.71112 1.52957 10.1118 1.44899 10.6479L1.28274 11.4396C1.20154 11.8295 1.2972 12.2353 1.54399 12.5479C1.73676 12.791 2.02567 12.9384 2.33565 12.9517H8.87482C9.51196 12.9094 10.0016 12.3708 9.98315 11.7325C9.99609 11.086 10.524 10.5686 11.1707 10.5688H14.1948Z" fill="black"/>
<path fill-rule="evenodd" clip-rule="evenodd" d="M8.74815 3.90292C8.74815 5.65182 7.33039 7.06958 5.58149 7.06958C3.83258 7.06958 2.41482 5.65182 2.41482 3.90292V2.66C2.41482 1.19092 3.60574 0 5.07482 0H6.1119C7.5717 0.0130344 8.74821 1.20015 8.74815 2.66V3.90292ZM5.07482 1.1875C4.26158 1.1875 3.60232 1.84676 3.60232 2.66L3.62607 3.90292C3.75241 4.89976 4.60042 5.64707 5.60524 5.64707C6.61006 5.64707 7.45806 4.89976 7.5844 3.90292V2.66C7.5844 1.84676 6.92514 1.1875 6.1119 1.1875H5.07482Z" fill="black"/>
<path fill-rule="evenodd" clip-rule="evenodd" d="M14.749 4.10083C14.749 5.41251 13.6857 6.47583 12.374 6.47583C11.0623 6.47583 9.99899 5.41251 9.99899 4.10083V3.19042C9.99885 2.10086 10.8729 1.21271 11.9623 1.19542H12.754C13.8558 1.19542 14.749 2.08861 14.749 3.19042V4.10083ZM11.9782 2.39875C11.5409 2.39875 11.1865 2.75319 11.1865 3.19042V4.10083C11.1865 4.75667 11.7182 5.28833 12.374 5.28833C13.0298 5.28833 13.5615 4.75667 13.5615 4.10083V3.19042C13.5615 2.75319 13.207 2.39875 12.7698 2.39875H11.9782Z" fill="black"/>
</svg>
