<svg width="17" height="15" viewBox="0 0 17 15" fill="none" xmlns="http://www.w3.org/2000/svg">
<path d="M5.54624 7.06969H5.60958C7.35848 7.06969 8.77624 5.65192 8.77624 3.90302V2.66011C8.77416 1.94977 8.48889 1.26959 7.98365 0.770285C7.4784 0.27098 6.79489 -0.00622058 6.08458 0.000105962H5.03958C3.5723 0.00445347 2.38393 1.19283 2.37958 2.66011V3.90302C2.37958 5.65192 3.79734 7.06969 5.54624 7.06969Z" fill="black"/>
<path d="M12.3387 6.47594C13.6504 6.47594 14.7137 5.41262 14.7137 4.10094V3.19052C14.7138 2.09487 13.8302 1.20422 12.7346 1.19552H11.9429C10.8473 1.20422 9.96371 2.09487 9.96375 3.19052V4.10094C9.96375 5.41262 11.0271 6.47594 12.3387 6.47594Z" fill="black"/>
<path d="M16.21 9.77719L16.0833 9.15177C15.9336 8.29321 15.1894 7.66584 14.3179 7.66344H9.48874C8.8986 7.6647 8.34847 7.96206 8.02416 8.45511H2.44291C1.88295 8.45551 1.34451 8.67089 0.938744 9.05677C0.590119 9.37622 0.344784 9.79246 0.23416 10.2522C0.23416 10.2918 0.23416 10.3314 0.23416 10.363V10.5689L0.0679104 11.2022C-0.101416 11.8951 0.0496356 12.6274 0.479319 13.1967C0.909003 13.766 1.57182 14.1121 2.28458 14.1393H8.83958C9.0078 14.1387 9.1753 14.1174 9.33833 14.0759H9.44124C9.56021 14.042 9.67662 13.9997 9.78958 13.9493L9.91624 13.878C10.0107 13.8247 10.1007 13.7638 10.1854 13.6959L10.3121 13.593C10.3899 13.5204 10.4639 13.4438 10.5337 13.3634C10.5337 13.3239 10.605 13.2922 10.6367 13.2447C10.7251 13.1284 10.802 13.0038 10.8662 12.8726C10.9 12.8007 10.9291 12.7266 10.9533 12.6509C10.9844 12.5788 11.0109 12.5048 11.0325 12.4293C11.0325 12.3501 11.0721 12.2709 11.0879 12.1918V12.073H14.4762C15.0353 12.0565 15.5566 11.7872 15.8937 11.3409C16.2307 10.8945 16.3471 10.3194 16.21 9.77719Z" fill="black"/>
</svg>
