<svg width="17" height="17" viewBox="0 0 17 17" fill="none" xmlns="http://www.w3.org/2000/svg">
<path fill-rule="evenodd" clip-rule="evenodd" d="M14.9201 4.59763L10.5941 1.38958C9.32874 0.462831 7.61136 0.462831 6.34596 1.38958L2.02777 4.59763C1.1917 5.20188 0.694263 6.17093 0.689514 7.20466V13.0041C0.736216 14.8722 2.28192 16.3495 4.14407 16.3058H12.796C14.6582 16.3495 16.2039 14.8722 16.2506 13.0041V7.19685C16.2439 6.1676 15.75 5.20278 14.9201 4.59763ZM15.0835 13.0041C15.0371 14.2256 14.0137 15.1789 12.796 15.135H4.14405C2.92793 15.1746 1.90716 14.2237 1.85657 13.0041V7.20464C1.86072 6.54111 2.18193 5.91986 2.72021 5.53427L7.03841 2.33402C7.89123 1.70926 9.04883 1.70926 9.90165 2.33402L14.2198 5.54207C14.7577 5.92097 15.0795 6.53755 15.0835 7.19683V13.0041ZM4.96884 11.4274H11.9713C12.2936 11.4274 12.5549 11.6895 12.5549 12.0128C12.5549 12.3361 12.2936 12.5982 11.9713 12.5982H4.96884C4.64656 12.5982 4.3853 12.3361 4.3853 12.0128C4.3853 11.6895 4.64656 11.4274 4.96884 11.4274Z" fill="#7C39D4"/>
</svg>
