<svg width="17" height="17" viewBox="0 0 17 17" fill="none" xmlns="http://www.w3.org/2000/svg">
<path d="M14.7132 4.76029L14.4287 5.14413L14.4325 5.14687L14.7132 4.76029ZM10.5447 1.67148L10.8292 1.28765L10.8278 1.28666L10.5447 1.67148ZM16 7.27094L16.4777 7.27094L16.4777 7.26831L16 7.27094ZM16 12.8625L16.4777 12.8763V12.8625H16ZM12.6763 16.0305L12.687 15.5528H12.6763V16.0305ZM4.33158 16.0305L4.33158 15.5526L4.31975 15.5529L4.33158 16.0305ZM1 12.8625H0.522086L0.52248 12.8762L1 12.8625ZM1 7.27094L0.522283 7.26831V7.27094H1ZM2.28684 4.76029L2.56752 5.14689L2.57126 5.14412L2.28684 4.76029ZM6.45526 1.67148L6.17219 1.28666L6.17085 1.28765L6.45526 1.67148ZM14.9976 4.37647L10.8292 1.28765L10.2603 2.0553L14.4287 5.14412L14.9976 4.37647ZM16.4777 7.26831C16.4714 6.12182 15.9205 5.04652 14.9938 4.37372L14.4325 5.14687C15.1125 5.64057 15.5176 6.43043 15.5223 7.27358L16.4777 7.26831ZM16.4777 12.8625V7.27094H15.5223V12.8625H16.4777ZM12.6656 16.5081C14.7172 16.5539 16.4184 14.9303 16.4775 12.8762L15.5225 12.8487C15.4784 14.3806 14.2105 15.5869 12.687 15.5529L12.6656 16.5081ZM4.33158 16.5082H12.6763V15.5528H4.33158V16.5082ZM0.52248 12.8762C0.581621 14.9339 2.28838 16.559 4.34341 16.5081L4.31975 15.5529C2.79361 15.5907 1.52162 14.3833 1.47752 12.8488L0.52248 12.8762ZM0.522283 7.27094V12.8625H1.47772V7.27094H0.522283ZM2.00618 4.37372C1.07948 5.04652 0.528623 6.12182 0.522291 7.26831L1.47771 7.27358C1.48237 6.43043 1.8875 5.64057 2.56751 5.14687L2.00618 4.37372ZM6.17085 1.28765L2.00243 4.37647L2.57126 5.14412L6.73968 2.0553L6.17085 1.28765ZM10.8278 1.28666C9.44233 0.267491 7.55767 0.267491 6.17219 1.28666L6.73834 2.05629C7.78704 1.28486 9.21296 1.28486 10.2617 2.05629L10.8278 1.28666ZM4.96684 11.8681C4.96684 12.1043 4.77535 12.2958 4.53912 12.2958V11.3403C4.24767 11.3403 4.01141 11.5766 4.01141 11.8681H4.96684ZM4.53912 11.4403C4.77535 11.4403 4.96684 11.6318 4.96684 11.8681H4.01141C4.01141 12.1595 4.24767 12.3958 4.53912 12.3958V11.4403ZM12.6603 11.4403H4.53912V12.3958H12.6603V11.4403ZM12.2326 11.8681C12.2326 11.6318 12.4241 11.4403 12.6603 11.4403V12.3958C12.9518 12.3958 13.188 12.1595 13.188 11.8681H12.2326ZM12.6603 12.2958C12.4241 12.2958 12.2326 12.1043 12.2326 11.8681H13.188C13.188 11.5766 12.9518 11.3403 12.6603 11.3403V12.2958ZM4.53912 12.2958H12.6603V11.3403H4.53912V12.2958Z" fill="black"/>
</svg>
