<svg width="17" height="17" viewBox="0 0 17 17" fill="none" xmlns="http://www.w3.org/2000/svg">
<path fill-rule="evenodd" clip-rule="evenodd" d="M10.647 1.3278L15.0238 4.56069C15.8673 5.17115 16.3692 6.14723 16.375 7.18846V13.0408C16.3208 14.9174 14.762 16.3984 12.8851 16.3566H4.12316C2.24305 16.403 0.679204 14.9207 0.625 13.0408V7.18846C0.630769 6.14723 1.13266 5.17115 1.97618 4.56069L6.35303 1.3278C7.63097 0.390734 9.36903 0.390734 10.647 1.3278ZM4.76976 12.8502H12.2303C12.5737 12.8502 12.852 12.5718 12.852 12.2285C12.852 11.8851 12.5737 11.6068 12.2303 11.6068H4.76976C4.4264 11.6068 4.14805 11.8851 4.14805 12.2285C4.14805 12.5718 4.4264 12.8502 4.76976 12.8502Z" fill="#3BA5D2"/>
</svg>
