<svg width="12" height="15" viewBox="0 0 12 15" fill="none" xmlns="http://www.w3.org/2000/svg">
<path fill-rule="evenodd" clip-rule="evenodd" d="M11.752 11.0325L11.9341 11.8875C12.1067 12.6267 11.9363 13.4034 11.4694 14.0056C11.0026 14.6078 10.2881 14.9724 9.52101 15H2.47899C1.71194 14.9724 0.997416 14.6078 0.530563 14.0056C0.0637106 13.4034 -0.106693 12.6267 0.0658918 11.8875L0.248013 11.0325C0.457479 9.87509 1.46414 9.02453 2.65353 9.00001H9.34647C10.5359 9.02453 11.5425 9.87509 11.752 11.0325ZM9.52101 13.8675C9.90634 13.8631 10.269 13.6866 10.5075 13.3875V13.395C10.8002 13.0321 10.9142 12.5593 10.8186 12.105L10.6365 11.25C10.5354 10.6164 9.995 10.1419 9.34647 10.1175H2.65353C2.005 10.1419 1.46455 10.6164 1.36351 11.25L1.18139 12.105C1.08817 12.5569 1.20207 13.0265 1.49251 13.3875C1.73104 13.6866 2.09367 13.8631 2.479 13.8675H9.52101Z" fill="black"/>
<path fill-rule="evenodd" clip-rule="evenodd" d="M6.37941 7.5H5.62057C3.94419 7.5 2.58522 6.15686 2.58522 4.5V2.52001C2.5832 1.85105 2.85117 1.20892 3.32977 0.735893C3.80837 0.262868 4.45807 -0.00198864 5.13491 1.12438e-05H6.86506C7.5419 -0.00198864 8.1916 0.262868 8.6702 0.735893C9.1488 1.20892 9.41678 1.85105 9.41476 2.52001V4.5C9.41476 6.15686 8.05578 7.5 6.37941 7.5ZM5.13491 1.12501C4.3554 1.12501 3.72348 1.74957 3.72348 2.52001V4.5C3.72348 5.53554 4.57283 6.375 5.62057 6.375H6.37941C7.42714 6.375 8.2765 5.53554 8.2765 4.5V2.52001C8.2765 2.15003 8.1278 1.79521 7.8631 1.5336C7.5984 1.27198 7.2394 1.12501 6.86506 1.12501H5.13491Z" fill="black"/>
</svg>
