<svg width="12" height="15" viewBox="0 0 12 15" fill="none" xmlns="http://www.w3.org/2000/svg">
<path d="M9.52101 15H2.47899C1.71194 14.9724 0.997416 14.6078 0.530563 14.0056C0.0637106 13.4034 -0.106693 12.6267 0.0658918 11.8875L0.248013 11.0325C0.457479 9.87508 1.46414 9.02452 2.65353 9H9.34647C10.5359 9.02452 11.5425 9.87508 11.752 11.0325L11.9341 11.8875C12.1067 12.6267 11.9363 13.4034 11.4694 14.0056C11.0026 14.6078 10.2881 14.9724 9.52101 15Z" fill="black"/>
<path d="M6.37942 7.50001H5.62058C3.9442 7.50001 2.58523 6.15686 2.58523 4.50001V2.52001C2.58321 1.85105 2.85119 1.20892 3.32979 0.735894C3.80839 0.262868 4.45809 -0.00198864 5.13493 1.12438e-05H6.86507C7.54191 -0.00198864 8.19161 0.262868 8.67021 0.735894C9.14881 1.20892 9.41679 1.85105 9.41477 2.52001V4.50001C9.41477 5.29566 9.09497 6.05872 8.52573 6.62133C7.9565 7.18394 7.18444 7.50001 6.37942 7.50001Z" fill="black"/>
</svg>
